<?xml version="1.0" standalone="no"?>
<!DOCTYPE svg PUBLIC "-//W3C//DTD SVG 20010904//EN"
 "http://www.w3.org/TR/2001/REC-SVG-20010904/DTD/svg10.dtd">
<svg version="1.0" xmlns="http://www.w3.org/2000/svg"
 width="324.000000pt" height="210.000000pt" viewBox="0 0 324.000000 210.000000"
 preserveAspectRatio="xMidYMid meet">
<g transform="translate(0.000000,210.000000) scale(0.100000,-0.100000)"
fill="#000000" stroke="none">
<path d="M1260 1541 c-33 -62 -2 -81 131 -81 l109 0 0 -45 0 -45 -52 0 c-108
0 -139 -42 -146 -196 -7 -165 21 -189 155 -130 99 44 84 44 189 0 138 -57 164
-40 164 103 0 173 -33 223 -146 223 l-64 0 0 45 0 45 115 0 c111 0 115 1 131
25 15 23 15 27 0 50 l-16 25 -280 0 c-266 0 -280 -1 -290 -19z m228 -373 c31
-31 7 -88 -38 -88 -33 0 -50 17 -50 50 0 45 57 69 88 38z m214 -13 c17 -37 -3
-75 -40 -75 -35 0 -52 16 -52 50 0 53 70 73 92 25z"/>
<path d="M1183 1195 c-43 -18 -45 -33 -41 -224 3 -176 9 -195 76 -234 46 -27
370 -26 416 1 140 82 83 316 -77 316 -114 0 -189 -104 -153 -211 7 -22 5 -23
-62 -23 -97 0 -96 -3 -102 208 -5 187 -6 189 -57 167z m417 -265 c36 -67 -29
-141 -82 -93 -18 16 -25 77 -10 99 25 37 71 34 92 -6z"/>
<path d="M2192 1043 c-57 -28 -77 -67 -77 -150 l0 -73 -66 0 c-85 0 -88 4 -91
126 l-3 99 -30 -3 c-62 -7 -68 -23 -69 -199 -1 -209 -6 -219 -107 -209 -75 7
-79 4 -54 -44 63 -122 255 -51 255 94 l0 35 181 1 c197 0 216 5 262 60 114
135 -43 341 -201 263z m110 -100 c23 -20 24 -80 1 -105 -22 -25 -59 -23 -77 4
-46 66 19 153 76 101z"/>
<path d="M1004 1039 c-39 -11 -54 -44 -54 -120 0 -100 2 -99 -160 -99 l-140 0
0 -34 c0 -56 18 -66 128 -67 242 -3 268 17 274 215 3 117 2 120 -48 105z"/>
<path d="M2341 641 c-79 -49 -93 -63 -85 -84 12 -32 40 -28 123 19 73 42 82
50 79 73 -5 40 -42 37 -117 -8z"/>
<path d="M883 659 c-24 -9 -37 -40 -28 -68 13 -42 90 -39 101 3 12 47 -27 82
-73 65z"/>
</g>
</svg>
